# xmcd
#
# Track frame offsets:
#	150
#	20399
#	36311
#	52701
#	77779
#	94776
#	110737
#	129193
#	147888
#	168528
#	183172
#	201722
#
# Disc length: 2852 seconds
#
# Revision: 1
# Processed by: cddbd v1.5.2PL0 Copyright (c) Steve Scherf et al.
# Submitted via: audiograbber 1.83.01
#
DISCID=a00b220c
DTITLE=Sean Hogan - Southern Sessions
DYEAR=2007
DGENRE=Canadian Country
TTITLE0=Heartbreak Song
TTITLE1=What Would You Have Me Believe
TTITLE2=Straight
TTITLE3=Genuine Love
TTITLE4=Don't Sweat The Small Stuff
TTITLE5=My Memory
TTITLE6=Suck It Up
TTITLE7=Shangri la
TTITLE8=Vunerable
TTITLE9=You Can't Cry You Way Out Of This
TTITLE10=A Cowboy's Heart
TTITLE11=Centered
EXTD=
EXTT0=
EXTT1=
EXTT2=
EXTT3=
EXTT4=
EXTT5=
EXTT6=
EXTT7=
EXTT8=
EXTT9=
EXTT10=
EXTT11=
PLAYORDER=
